<svg id="Capa_1" enable-background="new 0 0 512 512" height="512" viewBox="0 0 512 512" width="512" xmlns="http://www.w3.org/2000/svg"><g><g><path d="m461.789 0h-94.622l-110.941 5-110.941-5h-95.074c-5.534 0-10.02 4.486-10.02 10.02v491.96c0 5.534 4.486 10.02 10.02 10.02h95.074l110.941-5 110.941 5h94.622c5.533 0 10.02-4.486 10.02-10.02v-491.96c0-5.534-4.486-10.02-10.02-10.02zm-348.096 461.296c0 4.427-3.589 8.016-8.016 8.016h-17.802c-4.427 0-8.016-3.589-8.016-8.016v-17.398c0-4.427 3.589-8.016 8.016-8.016h17.803c4.427 0 8.016 3.589 8.016 8.016v17.398zm0-65.66c0 4.427-3.589 8.016-8.016 8.016h-17.802c-4.427 0-8.016-3.589-8.016-8.016v-17.398c0-4.427 3.589-8.016 8.016-8.016h17.803c4.427 0 8.016 3.589 8.016 8.016v17.398zm0-65.661c0 4.427-3.589 8.016-8.016 8.016h-17.802c-4.427 0-8.016-3.589-8.016-8.016v-17.398c0-4.427 3.589-8.016 8.016-8.016h17.803c4.427 0 8.016 3.589 8.016 8.016v17.398zm0-65.66c0 4.427-3.589 8.016-8.016 8.016h-17.802c-4.427 0-8.016-3.589-8.016-8.016v-17.398c0-4.427 3.589-8.016 8.016-8.016h17.803c4.427 0 8.016 3.589 8.016 8.016v17.398zm0-65.661c0 4.427-3.589 8.016-8.016 8.016h-17.802c-4.427 0-8.016-3.589-8.016-8.016v-17.398c0-4.427 3.589-8.016 8.016-8.016h17.803c4.427 0 8.016 3.589 8.016 8.016v17.398zm0-65.66c0 4.427-3.589 8.016-8.016 8.016h-17.802c-4.427 0-8.016-3.589-8.016-8.016v-17.398c0-4.427 3.589-8.016 8.016-8.016h17.803c4.427 0 8.016 3.589 8.016 8.016v17.398zm0-65.661c0 4.427-3.589 8.016-8.016 8.016h-17.802c-4.427 0-8.016-3.589-8.016-8.016v-17.398c0-4.427 3.589-8.016 8.016-8.016h17.803c4.427 0 8.016 3.589 8.016 8.016v17.398zm318.899 393.963c0 4.427-3.589 8.016-8.016 8.016h-17.803c-4.427 0-8.016-3.589-8.016-8.016v-17.398c0-4.427 3.589-8.016 8.016-8.016h17.803c4.427 0 8.016 3.589 8.016 8.016zm0-65.66c0 4.427-3.589 8.016-8.016 8.016h-17.803c-4.427 0-8.016-3.589-8.016-8.016v-17.398c0-4.427 3.589-8.016 8.016-8.016h17.803c4.427 0 8.016 3.589 8.016 8.016zm0-65.661c0 4.427-3.589 8.016-8.016 8.016h-17.803c-4.427 0-8.016-3.589-8.016-8.016v-17.398c0-4.427 3.589-8.016 8.016-8.016h17.803c4.427 0 8.016 3.589 8.016 8.016zm0-65.66c0 4.427-3.589 8.016-8.016 8.016h-17.803c-4.427 0-8.016-3.589-8.016-8.016v-17.398c0-4.427 3.589-8.016 8.016-8.016h17.803c4.427 0 8.016 3.589 8.016 8.016zm0-65.661c0 4.427-3.589 8.016-8.016 8.016h-17.803c-4.427 0-8.016-3.589-8.016-8.016v-17.398c0-4.427 3.589-8.016 8.016-8.016h17.803c4.427 0 8.016 3.589 8.016 8.016zm0-65.66c0 4.427-3.589 8.016-8.016 8.016h-17.803c-4.427 0-8.016-3.589-8.016-8.016v-17.398c0-4.427 3.589-8.016 8.016-8.016h17.803c4.427 0 8.016 3.589 8.016 8.016zm0-65.661c0 4.427-3.589 8.016-8.016 8.016h-17.803c-4.427 0-8.016-3.589-8.016-8.016v-17.398c0-4.427 3.589-8.016 8.016-8.016h17.803c4.427 0 8.016 3.589 8.016 8.016z" fill="#524798"/></g><g><path d="m352.167 347.982h-191.882c-8.284 0-15-6.716-15-15v-154.733c0-8.284 6.716-15 15-15h191.882c8.284 0 15 6.716 15 15v154.734c0 8.284-6.716 14.999-15 14.999z" fill="#f4c3c6"/></g><g><path d="m352.167 119.031h-191.882c-8.284 0-15-6.716-15-15v-104.031h221.882v104.031c0 8.285-6.716 15-15 15z" fill="#ecf4ff"/></g><g><path d="m461.789 0h-37.454v41.919h.242c4.427 0 8.016 3.589 8.016 8.016v17.398c0 4.427-3.589 8.016-8.016 8.016h-.242v32.231h.242c4.427 0 8.016 3.589 8.016 8.016v17.398c0 4.427-3.589 8.016-8.016 8.016h-.242v32.231h.242c4.427 0 8.016 3.589 8.016 8.016v17.398c0 4.427-3.589 8.016-8.016 8.016h-.242v32.231h.242c4.427 0 8.016 3.589 8.016 8.016v17.398c0 4.427-3.589 8.016-8.016 8.016h-.242v32.231h.242c4.427 0 8.016 3.589 8.016 8.016v17.398c0 4.427-3.589 8.016-8.016 8.016h-.242v32.231h.242c4.427 0 8.016 3.589 8.016 8.016v17.398c0 4.427-3.589 8.016-8.016 8.016h-.242v32.231h.242c4.427 0 8.016 3.589 8.016 8.016v17.398c0 4.427-3.589 8.016-8.016 8.016h-17.803c-3.652 0-6.727-2.444-7.694-5.784h-285.708c-.967 3.34-4.043 5.784-7.694 5.784h-17.803c-3.652 0-6.727-2.444-7.694-5.784h-39.99v38.452c0 5.534 4.486 10.02 10.02 10.02h95.074l110.715-5.003 111.167 5h94.622c5.533 0 10.02-4.486 10.02-10.02v-491.96c0-5.534-4.486-10.02-10.02-10.02z" fill="#453d81"/></g><g><path d="m352.137 163.249h-25.457v129.218c0 8.3-6.729 15.029-15.029 15.029h-166.366v25.457c0 8.3 6.729 15.029 15.029 15.029h191.824c8.3 0 15.029-6.729 15.029-15.029v-154.675c0-8.3-6.729-15.029-15.03-15.029z" fill="#eab1b7"/></g><g><path d="m326.68 0v63.516c0 8.3-6.729 15.029-15.029 15.029h-166.366v25.457c0 8.3 6.729 15.029 15.029 15.029h191.824c8.3 0 15.029-6.729 15.029-15.029v-104.002z" fill="#ddeafb"/></g><g><path d="m299.331 245.336-62.665-36.179c-6.667-3.849-15 .962-15 8.66v72.359c0 7.698 8.333 12.509 15 8.66l62.665-36.179c6.667-3.85 6.667-13.472 0-17.321z" fill="#dd636e"/></g><g><path d="m299.302 245.319-16.839-9.722c-.7 2.275-2.202 4.342-4.543 5.694l-56.253 32.478v16.374c0 7.713 8.35 12.534 15.029 8.677l62.606-36.146c6.68-3.857 6.68-13.499 0-17.355z" fill="#d82e3d"/></g><g><path d="m367.167 512h-221.882v-104.8c0-8.284 6.716-15 15-15h191.882c8.284 0 15 6.716 15 15z" fill="#ecf4ff"/></g><g><path d="m352.137 392.2h-25.457v56.299c0 8.3-6.729 15.029-15.029 15.029h-166.366v48.472h221.882v-104.771c0-8.3-6.729-15.029-15.03-15.029z" fill="#ddeafb"/></g></g></svg>