<svg width="179" height="28" viewBox="0 0 179 28" fill="none" xmlns="http://www.w3.org/2000/svg">
<mask id="path-1-outside-1" maskUnits="userSpaceOnUse" x="0.203979" y="0.692017" width="179" height="27" fill="black">
<rect fill="white" x="0.203979" y="0.692017" width="179" height="27"/>
<path d="M17.94 10.14C17.3986 9.00135 16.6146 8.12402 15.588 7.50802C14.5613 6.87335 13.3666 6.55602 12.004 6.55602C10.6413 6.55602 9.40931 6.87335 8.30798 7.50802C7.22531 8.12402 6.36665 9.02002 5.73198 10.196C5.11598 11.3533 4.80798 12.6974 4.80798 14.228C4.80798 15.7587 5.11598 17.1027 5.73198 18.26C6.36665 19.4174 7.22531 20.3134 8.30798 20.948C9.40931 21.564 10.6413 21.872 12.004 21.872C13.908 21.872 15.476 21.3027 16.708 20.164C17.94 19.0253 18.6586 17.4853 18.864 15.544H11.08V13.472H21.58V15.432C21.4306 17.0373 20.9266 18.512 20.068 19.856C19.2093 21.1813 18.08 22.236 16.68 23.02C15.28 23.7854 13.7213 24.168 12.004 24.168C10.1933 24.168 8.54131 23.748 7.04798 22.908C5.55465 22.0493 4.36931 20.864 3.49198 19.352C2.63331 17.84 2.20398 16.132 2.20398 14.228C2.20398 12.324 2.63331 10.616 3.49198 9.10402C4.36931 7.57335 5.55465 6.38802 7.04798 5.54802C8.54131 4.68935 10.1933 4.26002 12.004 4.26002C14.076 4.26002 15.9053 4.77335 17.492 5.80002C19.0973 6.82668 20.264 8.27335 20.992 10.14H17.94Z"/>
<path d="M31.6409 24.252C30.2036 24.252 28.8969 23.9253 27.7209 23.272C26.5636 22.6187 25.6489 21.6947 24.9769 20.5C24.3236 19.2867 23.9969 17.8867 23.9969 16.3C23.9969 14.732 24.3329 13.3507 25.0049 12.156C25.6956 10.9427 26.6289 10.0187 27.8049 9.38402C28.9809 8.73068 30.2969 8.40402 31.7529 8.40402C33.2089 8.40402 34.525 8.73068 35.701 9.38402C36.877 10.0187 37.801 10.9333 38.4729 12.128C39.1636 13.3227 39.5089 14.7133 39.5089 16.3C39.5089 17.8867 39.1543 19.2867 38.445 20.5C37.7543 21.6947 36.8116 22.6187 35.617 23.272C34.4223 23.9253 33.0969 24.252 31.6409 24.252ZM31.6409 22.012C32.5556 22.012 33.4143 21.7974 34.2169 21.368C35.0196 20.9387 35.6636 20.2947 36.1489 19.436C36.6529 18.5774 36.9049 17.532 36.9049 16.3C36.9049 15.068 36.6623 14.0227 36.1769 13.164C35.6916 12.3054 35.0569 11.6707 34.2729 11.26C33.4889 10.8307 32.6396 10.616 31.7249 10.616C30.7916 10.616 29.9329 10.8307 29.1489 11.26C28.3836 11.6707 27.7676 12.3054 27.3009 13.164C26.8343 14.0227 26.6009 15.068 26.6009 16.3C26.6009 17.5507 26.8249 18.6054 27.2729 19.464C27.7396 20.3227 28.3556 20.9667 29.1209 21.396C29.8863 21.8067 30.7263 22.012 31.6409 22.012Z"/>
<path d="M62.6551 4.62402V24H60.1071V9.55202L53.6671 24H51.8751L45.4071 9.52402V24H42.8591V4.62402H45.6031L52.7711 20.64L59.9391 4.62402H62.6551Z"/>
<path d="M73.6683 24.252C72.231 24.252 70.9243 23.9253 69.7483 23.272C68.591 22.6187 67.6763 21.6947 67.0043 20.5C66.351 19.2867 66.0243 17.8867 66.0243 16.3C66.0243 14.732 66.3603 13.3507 67.0323 12.156C67.723 10.9427 68.6563 10.0187 69.8323 9.38402C71.0083 8.73068 72.3243 8.40402 73.7803 8.40402C75.2363 8.40402 76.5523 8.73068 77.7283 9.38402C78.9043 10.0187 79.8283 10.9333 80.5003 12.128C81.191 13.3227 81.5363 14.7133 81.5363 16.3C81.5363 17.8867 81.1816 19.2867 80.4723 20.5C79.7816 21.6947 78.839 22.6187 77.6443 23.272C76.4496 23.9253 75.1243 24.252 73.6683 24.252ZM73.6683 22.012C74.583 22.012 75.4416 21.7974 76.2443 21.368C77.047 20.9387 77.691 20.2947 78.1763 19.436C78.6803 18.5774 78.9323 17.532 78.9323 16.3C78.9323 15.068 78.6896 14.0227 78.2043 13.164C77.719 12.3054 77.0843 11.6707 76.3003 11.26C75.5163 10.8307 74.667 10.616 73.7523 10.616C72.819 10.616 71.9603 10.8307 71.1763 11.26C70.411 11.6707 69.795 12.3054 69.3283 13.164C68.8616 14.0227 68.6283 15.068 68.6283 16.3C68.6283 17.5507 68.8523 18.6054 69.3003 19.464C69.767 20.3227 70.383 20.9667 71.1483 21.396C71.9136 21.8067 72.7536 22.012 73.6683 22.012Z"/>
<path d="M90.5984 21.648L95.3584 8.65602H98.0744L92.0544 24H89.0864L83.0664 8.65602H85.8104L90.5984 21.648Z"/>
<path d="M101.898 6.16402C101.412 6.16402 101.002 5.99602 100.666 5.66002C100.33 5.32402 100.162 4.91335 100.162 4.42802C100.162 3.94268 100.33 3.53202 100.666 3.19602C101.002 2.86002 101.412 2.69202 101.898 2.69202C102.364 2.69202 102.756 2.86002 103.074 3.19602C103.41 3.53202 103.578 3.94268 103.578 4.42802C103.578 4.91335 103.41 5.32402 103.074 5.66002C102.756 5.99602 102.364 6.16402 101.898 6.16402ZM103.13 8.65602V24H100.582V8.65602H103.13Z"/>
<path d="M121.472 15.74C121.472 16.2254 121.444 16.7387 121.388 17.28H109.124C109.218 18.792 109.731 19.9774 110.664 20.836C111.616 21.676 112.764 22.096 114.108 22.096C115.21 22.096 116.124 21.844 116.852 21.34C117.599 20.8174 118.122 20.1267 118.42 19.268H121.164C120.754 20.7427 119.932 21.9467 118.7 22.88C117.468 23.7947 115.938 24.252 114.108 24.252C112.652 24.252 111.346 23.9253 110.188 23.272C109.05 22.6187 108.154 21.6947 107.5 20.5C106.847 19.2867 106.52 17.8867 106.52 16.3C106.52 14.7133 106.838 13.3227 107.472 12.128C108.107 10.9333 108.994 10.0187 110.132 9.38402C111.29 8.73068 112.615 8.40402 114.108 8.40402C115.564 8.40402 116.852 8.72135 117.972 9.35602C119.092 9.99068 119.951 10.868 120.548 11.988C121.164 13.0893 121.472 14.34 121.472 15.74ZM118.84 15.208C118.84 14.2374 118.626 13.4067 118.196 12.716C117.767 12.0067 117.179 11.4747 116.432 11.12C115.704 10.7467 114.892 10.56 113.996 10.56C112.708 10.56 111.607 10.9707 110.692 11.792C109.796 12.6134 109.283 13.752 109.152 15.208H118.84Z"/>
<path d="M125.648 24.168C125.162 24.168 124.752 24 124.416 23.664C124.08 23.328 123.912 22.9173 123.912 22.432C123.912 21.9467 124.08 21.536 124.416 21.2C124.752 20.864 125.162 20.696 125.648 20.696C126.114 20.696 126.506 20.864 126.824 21.2C127.16 21.536 127.328 21.9467 127.328 22.432C127.328 22.9173 127.16 23.328 126.824 23.664C126.506 24 126.114 24.168 125.648 24.168Z"/>
<path d="M136.147 24.252C134.971 24.252 133.916 24.056 132.983 23.664C132.049 23.2534 131.312 22.6933 130.771 21.984C130.229 21.256 129.931 20.4254 129.875 19.492H132.507C132.581 20.2574 132.936 20.8827 133.571 21.368C134.224 21.8534 135.073 22.096 136.119 22.096C137.089 22.096 137.855 21.8814 138.415 21.452C138.975 21.0227 139.255 20.4813 139.255 19.828C139.255 19.156 138.956 18.6614 138.359 18.344C137.761 18.008 136.837 17.6814 135.587 17.364C134.448 17.0654 133.515 16.7667 132.787 16.468C132.077 16.1507 131.461 15.6933 130.939 15.096C130.435 14.48 130.183 13.6774 130.183 12.688C130.183 11.904 130.416 11.1854 130.883 10.532C131.349 9.87868 132.012 9.36535 132.871 8.99202C133.729 8.60002 134.709 8.40402 135.811 8.40402C137.509 8.40402 138.881 8.83335 139.927 9.69202C140.972 10.5507 141.532 11.7267 141.607 13.22H139.059C139.003 12.4173 138.676 11.7734 138.079 11.288C137.5 10.8027 136.716 10.56 135.727 10.56C134.812 10.56 134.084 10.756 133.543 11.148C133.001 11.54 132.731 12.0534 132.731 12.688C132.731 13.192 132.889 13.612 133.207 13.948C133.543 14.2654 133.953 14.5267 134.439 14.732C134.943 14.9187 135.633 15.1334 136.511 15.376C137.612 15.6747 138.508 15.9733 139.199 16.272C139.889 16.552 140.477 16.9813 140.963 17.56C141.467 18.1387 141.728 18.8947 141.747 19.828C141.747 20.668 141.513 21.424 141.047 22.096C140.58 22.768 139.917 23.3 139.059 23.692C138.219 24.0653 137.248 24.252 136.147 24.252Z"/>
<path d="M146.659 6.16402C146.174 6.16402 145.763 5.99602 145.427 5.66002C145.091 5.32402 144.923 4.91335 144.923 4.42802C144.923 3.94268 145.091 3.53202 145.427 3.19602C145.763 2.86002 146.174 2.69202 146.659 2.69202C147.126 2.69202 147.518 2.86002 147.835 3.19602C148.171 3.53202 148.339 3.94268 148.339 4.42802C148.339 4.91335 148.171 5.32402 147.835 5.66002C147.518 5.99602 147.126 6.16402 146.659 6.16402ZM147.891 8.65602V24H145.343V8.65602H147.891Z"/>
<path d="M155.342 10.756V19.8C155.342 20.5467 155.501 21.0787 155.818 21.396C156.135 21.6947 156.686 21.844 157.47 21.844H159.346V24H157.05C155.631 24 154.567 23.6734 153.858 23.02C153.149 22.3667 152.794 21.2933 152.794 19.8V10.756H150.806V8.65602H152.794V4.79202H155.342V8.65602H159.346V10.756H155.342Z"/>
<path d="M176.433 15.74C176.433 16.2254 176.405 16.7387 176.349 17.28H164.085C164.179 18.792 164.692 19.9774 165.625 20.836C166.577 21.676 167.725 22.096 169.069 22.096C170.171 22.096 171.085 21.844 171.813 21.34C172.56 20.8174 173.083 20.1267 173.381 19.268H176.125C175.715 20.7427 174.893 21.9467 173.661 22.88C172.429 23.7947 170.899 24.252 169.069 24.252C167.613 24.252 166.307 23.9253 165.149 23.272C164.011 22.6187 163.115 21.6947 162.461 20.5C161.808 19.2867 161.481 17.8867 161.481 16.3C161.481 14.7133 161.799 13.3227 162.433 12.128C163.068 10.9333 163.955 10.0187 165.093 9.38402C166.251 8.73068 167.576 8.40402 169.069 8.40402C170.525 8.40402 171.813 8.72135 172.933 9.35602C174.053 9.99068 174.912 10.868 175.509 11.988C176.125 13.0893 176.433 14.34 176.433 15.74ZM173.801 15.208C173.801 14.2374 173.587 13.4067 173.157 12.716C172.728 12.0067 172.14 11.4747 171.393 11.12C170.665 10.7467 169.853 10.56 168.957 10.56C167.669 10.56 166.568 10.9707 165.653 11.792C164.757 12.6134 164.244 13.752 164.113 15.208H173.801Z"/>
</mask>
<path d="M17.94 10.14C17.3986 9.00135 16.6146 8.12402 15.588 7.50802C14.5613 6.87335 13.3666 6.55602 12.004 6.55602C10.6413 6.55602 9.40931 6.87335 8.30798 7.50802C7.22531 8.12402 6.36665 9.02002 5.73198 10.196C5.11598 11.3533 4.80798 12.6974 4.80798 14.228C4.80798 15.7587 5.11598 17.1027 5.73198 18.26C6.36665 19.4174 7.22531 20.3134 8.30798 20.948C9.40931 21.564 10.6413 21.872 12.004 21.872C13.908 21.872 15.476 21.3027 16.708 20.164C17.94 19.0253 18.6586 17.4853 18.864 15.544H11.08V13.472H21.58V15.432C21.4306 17.0373 20.9266 18.512 20.068 19.856C19.2093 21.1813 18.08 22.236 16.68 23.02C15.28 23.7854 13.7213 24.168 12.004 24.168C10.1933 24.168 8.54131 23.748 7.04798 22.908C5.55465 22.0493 4.36931 20.864 3.49198 19.352C2.63331 17.84 2.20398 16.132 2.20398 14.228C2.20398 12.324 2.63331 10.616 3.49198 9.10402C4.36931 7.57335 5.55465 6.38802 7.04798 5.54802C8.54131 4.68935 10.1933 4.26002 12.004 4.26002C14.076 4.26002 15.9053 4.77335 17.492 5.80002C19.0973 6.82668 20.264 8.27335 20.992 10.14H17.94Z" stroke="black" stroke-width="4" mask="url(#path-1-outside-1)"/>
<path d="M31.6409 24.252C30.2036 24.252 28.8969 23.9253 27.7209 23.272C26.5636 22.6187 25.6489 21.6947 24.9769 20.5C24.3236 19.2867 23.9969 17.8867 23.9969 16.3C23.9969 14.732 24.3329 13.3507 25.0049 12.156C25.6956 10.9427 26.6289 10.0187 27.8049 9.38402C28.9809 8.73068 30.2969 8.40402 31.7529 8.40402C33.2089 8.40402 34.525 8.73068 35.701 9.38402C36.877 10.0187 37.801 10.9333 38.4729 12.128C39.1636 13.3227 39.5089 14.7133 39.5089 16.3C39.5089 17.8867 39.1543 19.2867 38.445 20.5C37.7543 21.6947 36.8116 22.6187 35.617 23.272C34.4223 23.9253 33.0969 24.252 31.6409 24.252ZM31.6409 22.012C32.5556 22.012 33.4143 21.7974 34.2169 21.368C35.0196 20.9387 35.6636 20.2947 36.1489 19.436C36.6529 18.5774 36.9049 17.532 36.9049 16.3C36.9049 15.068 36.6623 14.0227 36.1769 13.164C35.6916 12.3054 35.0569 11.6707 34.2729 11.26C33.4889 10.8307 32.6396 10.616 31.7249 10.616C30.7916 10.616 29.9329 10.8307 29.1489 11.26C28.3836 11.6707 27.7676 12.3054 27.3009 13.164C26.8343 14.0227 26.6009 15.068 26.6009 16.3C26.6009 17.5507 26.8249 18.6054 27.2729 19.464C27.7396 20.3227 28.3556 20.9667 29.1209 21.396C29.8863 21.8067 30.7263 22.012 31.6409 22.012Z" stroke="black" stroke-width="4" mask="url(#path-1-outside-1)"/>
<path d="M62.6551 4.62402V24H60.1071V9.55202L53.6671 24H51.8751L45.4071 9.52402V24H42.8591V4.62402H45.6031L52.7711 20.64L59.9391 4.62402H62.6551Z" stroke="black" stroke-width="4" mask="url(#path-1-outside-1)"/>
<path d="M73.6683 24.252C72.231 24.252 70.9243 23.9253 69.7483 23.272C68.591 22.6187 67.6763 21.6947 67.0043 20.5C66.351 19.2867 66.0243 17.8867 66.0243 16.3C66.0243 14.732 66.3603 13.3507 67.0323 12.156C67.723 10.9427 68.6563 10.0187 69.8323 9.38402C71.0083 8.73068 72.3243 8.40402 73.7803 8.40402C75.2363 8.40402 76.5523 8.73068 77.7283 9.38402C78.9043 10.0187 79.8283 10.9333 80.5003 12.128C81.191 13.3227 81.5363 14.7133 81.5363 16.3C81.5363 17.8867 81.1816 19.2867 80.4723 20.5C79.7816 21.6947 78.839 22.6187 77.6443 23.272C76.4496 23.9253 75.1243 24.252 73.6683 24.252ZM73.6683 22.012C74.583 22.012 75.4416 21.7974 76.2443 21.368C77.047 20.9387 77.691 20.2947 78.1763 19.436C78.6803 18.5774 78.9323 17.532 78.9323 16.3C78.9323 15.068 78.6896 14.0227 78.2043 13.164C77.719 12.3054 77.0843 11.6707 76.3003 11.26C75.5163 10.8307 74.667 10.616 73.7523 10.616C72.819 10.616 71.9603 10.8307 71.1763 11.26C70.411 11.6707 69.795 12.3054 69.3283 13.164C68.8616 14.0227 68.6283 15.068 68.6283 16.3C68.6283 17.5507 68.8523 18.6054 69.3003 19.464C69.767 20.3227 70.383 20.9667 71.1483 21.396C71.9136 21.8067 72.7536 22.012 73.6683 22.012Z" stroke="black" stroke-width="4" mask="url(#path-1-outside-1)"/>
<path d="M90.5984 21.648L95.3584 8.65602H98.0744L92.0544 24H89.0864L83.0664 8.65602H85.8104L90.5984 21.648Z" stroke="black" stroke-width="4" mask="url(#path-1-outside-1)"/>
<path d="M101.898 6.16402C101.412 6.16402 101.002 5.99602 100.666 5.66002C100.33 5.32402 100.162 4.91335 100.162 4.42802C100.162 3.94268 100.33 3.53202 100.666 3.19602C101.002 2.86002 101.412 2.69202 101.898 2.69202C102.364 2.69202 102.756 2.86002 103.074 3.19602C103.41 3.53202 103.578 3.94268 103.578 4.42802C103.578 4.91335 103.41 5.32402 103.074 5.66002C102.756 5.99602 102.364 6.16402 101.898 6.16402ZM103.13 8.65602V24H100.582V8.65602H103.13Z" stroke="black" stroke-width="4" mask="url(#path-1-outside-1)"/>
<path d="M121.472 15.74C121.472 16.2254 121.444 16.7387 121.388 17.28H109.124C109.218 18.792 109.731 19.9774 110.664 20.836C111.616 21.676 112.764 22.096 114.108 22.096C115.21 22.096 116.124 21.844 116.852 21.34C117.599 20.8174 118.122 20.1267 118.42 19.268H121.164C120.754 20.7427 119.932 21.9467 118.7 22.88C117.468 23.7947 115.938 24.252 114.108 24.252C112.652 24.252 111.346 23.9253 110.188 23.272C109.05 22.6187 108.154 21.6947 107.5 20.5C106.847 19.2867 106.52 17.8867 106.52 16.3C106.52 14.7133 106.838 13.3227 107.472 12.128C108.107 10.9333 108.994 10.0187 110.132 9.38402C111.29 8.73068 112.615 8.40402 114.108 8.40402C115.564 8.40402 116.852 8.72135 117.972 9.35602C119.092 9.99068 119.951 10.868 120.548 11.988C121.164 13.0893 121.472 14.34 121.472 15.74ZM118.84 15.208C118.84 14.2374 118.626 13.4067 118.196 12.716C117.767 12.0067 117.179 11.4747 116.432 11.12C115.704 10.7467 114.892 10.56 113.996 10.56C112.708 10.56 111.607 10.9707 110.692 11.792C109.796 12.6134 109.283 13.752 109.152 15.208H118.84Z" stroke="black" stroke-width="4" mask="url(#path-1-outside-1)"/>
<path d="M125.648 24.168C125.162 24.168 124.752 24 124.416 23.664C124.08 23.328 123.912 22.9173 123.912 22.432C123.912 21.9467 124.08 21.536 124.416 21.2C124.752 20.864 125.162 20.696 125.648 20.696C126.114 20.696 126.506 20.864 126.824 21.2C127.16 21.536 127.328 21.9467 127.328 22.432C127.328 22.9173 127.16 23.328 126.824 23.664C126.506 24 126.114 24.168 125.648 24.168Z" stroke="black" stroke-width="4" mask="url(#path-1-outside-1)"/>
<path d="M136.147 24.252C134.971 24.252 133.916 24.056 132.983 23.664C132.049 23.2534 131.312 22.6933 130.771 21.984C130.229 21.256 129.931 20.4254 129.875 19.492H132.507C132.581 20.2574 132.936 20.8827 133.571 21.368C134.224 21.8534 135.073 22.096 136.119 22.096C137.089 22.096 137.855 21.8814 138.415 21.452C138.975 21.0227 139.255 20.4813 139.255 19.828C139.255 19.156 138.956 18.6614 138.359 18.344C137.761 18.008 136.837 17.6814 135.587 17.364C134.448 17.0654 133.515 16.7667 132.787 16.468C132.077 16.1507 131.461 15.6933 130.939 15.096C130.435 14.48 130.183 13.6774 130.183 12.688C130.183 11.904 130.416 11.1854 130.883 10.532C131.349 9.87868 132.012 9.36535 132.871 8.99202C133.729 8.60002 134.709 8.40402 135.811 8.40402C137.509 8.40402 138.881 8.83335 139.927 9.69202C140.972 10.5507 141.532 11.7267 141.607 13.22H139.059C139.003 12.4173 138.676 11.7734 138.079 11.288C137.5 10.8027 136.716 10.56 135.727 10.56C134.812 10.56 134.084 10.756 133.543 11.148C133.001 11.54 132.731 12.0534 132.731 12.688C132.731 13.192 132.889 13.612 133.207 13.948C133.543 14.2654 133.953 14.5267 134.439 14.732C134.943 14.9187 135.633 15.1334 136.511 15.376C137.612 15.6747 138.508 15.9733 139.199 16.272C139.889 16.552 140.477 16.9813 140.963 17.56C141.467 18.1387 141.728 18.8947 141.747 19.828C141.747 20.668 141.513 21.424 141.047 22.096C140.58 22.768 139.917 23.3 139.059 23.692C138.219 24.0653 137.248 24.252 136.147 24.252Z" stroke="black" stroke-width="4" mask="url(#path-1-outside-1)"/>
<path d="M146.659 6.16402C146.174 6.16402 145.763 5.99602 145.427 5.66002C145.091 5.32402 144.923 4.91335 144.923 4.42802C144.923 3.94268 145.091 3.53202 145.427 3.19602C145.763 2.86002 146.174 2.69202 146.659 2.69202C147.126 2.69202 147.518 2.86002 147.835 3.19602C148.171 3.53202 148.339 3.94268 148.339 4.42802C148.339 4.91335 148.171 5.32402 147.835 5.66002C147.518 5.99602 147.126 6.16402 146.659 6.16402ZM147.891 8.65602V24H145.343V8.65602H147.891Z" stroke="black" stroke-width="4" mask="url(#path-1-outside-1)"/>
<path d="M155.342 10.756V19.8C155.342 20.5467 155.501 21.0787 155.818 21.396C156.135 21.6947 156.686 21.844 157.47 21.844H159.346V24H157.05C155.631 24 154.567 23.6734 153.858 23.02C153.149 22.3667 152.794 21.2933 152.794 19.8V10.756H150.806V8.65602H152.794V4.79202H155.342V8.65602H159.346V10.756H155.342Z" stroke="black" stroke-width="4" mask="url(#path-1-outside-1)"/>
<path d="M176.433 15.74C176.433 16.2254 176.405 16.7387 176.349 17.28H164.085C164.179 18.792 164.692 19.9774 165.625 20.836C166.577 21.676 167.725 22.096 169.069 22.096C170.171 22.096 171.085 21.844 171.813 21.34C172.56 20.8174 173.083 20.1267 173.381 19.268H176.125C175.715 20.7427 174.893 21.9467 173.661 22.88C172.429 23.7947 170.899 24.252 169.069 24.252C167.613 24.252 166.307 23.9253 165.149 23.272C164.011 22.6187 163.115 21.6947 162.461 20.5C161.808 19.2867 161.481 17.8867 161.481 16.3C161.481 14.7133 161.799 13.3227 162.433 12.128C163.068 10.9333 163.955 10.0187 165.093 9.38402C166.251 8.73068 167.576 8.40402 169.069 8.40402C170.525 8.40402 171.813 8.72135 172.933 9.35602C174.053 9.99068 174.912 10.868 175.509 11.988C176.125 13.0893 176.433 14.34 176.433 15.74ZM173.801 15.208C173.801 14.2374 173.587 13.4067 173.157 12.716C172.728 12.0067 172.14 11.4747 171.393 11.12C170.665 10.7467 169.853 10.56 168.957 10.56C167.669 10.56 166.568 10.9707 165.653 11.792C164.757 12.6134 164.244 13.752 164.113 15.208H173.801Z" stroke="black" stroke-width="4" mask="url(#path-1-outside-1)"/>
</svg>
