<svg height="512pt" viewBox="0 0 512 512" width="512pt" xmlns="http://www.w3.org/2000/svg"><path d="m512 256c0 72.128906-29.828125 137.289062-77.824219 183.820312-46.085937 44.675782-108.917969 63.679688-178.175781 63.679688-97.410156 0-178.332031-47.5-225.378906-125.984375-21.125-35.246094-30.621094-77.539063-30.621094-121.515625 0-141.386719 114.613281-256 256-256s256 114.613281 256 256zm0 0" fill="#d6bf01"/><path d="m460 220c0 77.320312-62.679688 140-140 140s-140-62.679688-140-140 62.679688-140 140-140 140 62.679688 140 140zm0 0" fill="#ade8f0"/><path d="m353.726562 220 80.6875-80.691406c16.117188 22.808594 25.585938 50.640625 25.585938 80.691406s-9.46875 57.882812-25.585938 80.691406zm0 0" fill="#fff5f5"/><path d="m410 220c0 49.707031-40.292969 90-90 90s-90-40.292969-90-90 40.292969-90 90-90 90 40.292969 90 90zm0 0" fill="#84deea"/><path d="m353.726562 220 44.511719-44.511719c7.484375 13.128907 11.761719 28.320313 11.761719 44.511719s-4.277344 31.382812-11.761719 44.511719zm0 0" fill="#ade8f0"/><path d="m360 220c0 22.089844-17.910156 40-40 40s-40-17.910156-40-40 17.910156-40 40-40 40 17.910156 40 40zm0 0" fill="#d6bf01"/><path d="m115 380h-50c-8.285156 0-15-6.714844-15-15v-350c0-8.285156 6.714844-15 15-15h50c8.285156 0 15 6.714844 15 15v350c0 8.285156-6.714844 15-15 15zm0 0" fill="#00808a"/><path d="m325 380h-228c-8.285156 0-15-6.714844-15-15v-350c0-8.285156 6.714844-15 15-15h228c8.285156 0 15 6.714844 15 15v350c0 8.285156-6.714844 15-15 15zm0 0" fill="#0995a3"/><path d="m320 30v13.148438c0 5.523437-4.476562 10-10 10h-13.148438c-5.523437 0-10-4.476563-10-10v-13.148438c0-5.523438 4.476563-10 10-10h13.148438c5.523438 0 10 4.476562 10 10zm-10 47.371094h-13.148438c-5.523437 0-10 4.476562-10 10v13.148437c0 5.523438 4.476563 10 10 10h13.148438c5.523438 0 10-4.476562 10-10v-13.148437c0-5.523438-4.476562-10-10-10zm0 57.367187h-13.148438c-5.523437 0-10 4.480469-10 10v13.152344c0 5.519531 4.476563 10 10 10h13.148438c5.523438 0 10-4.480469 10-10v-13.152344c0-5.519531-4.476562-10-10-10zm0 57.371094h-13.148438c-5.523437 0-10 4.480469-10 10v13.152344c0 5.519531 4.476563 10 10 10h13.148438c5.523438 0 10-4.480469 10-10v-13.152344c0-5.519531-4.476562-10-10-10zm0 57.371094h-13.148438c-5.523437 0-10 4.476562-10 10v13.148437c0 5.523438 4.476563 10 10 10h13.148438c5.523438 0 10-4.476562 10-10v-13.148437c0-5.523438-4.476562-10-10-10zm0 57.371093h-13.148438c-5.523437 0-10 4.476563-10 10v13.148438c0 5.523438 4.476563 10 10 10h13.148438c5.523438 0 10-4.476562 10-10v-13.148438c0-5.523437-4.476562-10-10-10zm-186.851562-286.851562h-13.148438c-5.523438 0-10 4.476562-10 10v13.148438c0 5.523437 4.476562 10 10 10h13.148438c5.523437 0 10-4.476563 10-10v-13.148438c0-5.523438-4.476563-10-10-10zm0 57.371094h-13.148438c-5.523438 0-10 4.476562-10 10v13.148437c0 5.523438 4.476562 10 10 10h13.148438c5.523437 0 10-4.476562 10-10v-13.148437c0-5.523438-4.476563-10-10-10zm0 57.367187h-13.148438c-5.523438 0-10 4.480469-10 10v13.152344c0 5.519531 4.476562 10 10 10h13.148438c5.523437 0 10-4.480469 10-10v-13.152344c0-5.519531-4.476563-10-10-10zm0 57.371094h-13.148438c-5.523438 0-10 4.480469-10 10v13.152344c0 5.519531 4.476562 10 10 10h13.148438c5.523437 0 10-4.480469 10-10v-13.152344c0-5.519531-4.476563-10-10-10zm0 57.371094h-13.148438c-5.523438 0-10 4.476562-10 10v13.148437c0 5.523438 4.476562 10 10 10h13.148438c5.523437 0 10-4.476562 10-10v-13.148437c0-5.523438-4.476563-10-10-10zm0 57.371093h-13.148438c-5.523438 0-10 4.476563-10 10v13.148438c0 5.523438 4.476562 10 10 10h13.148438c5.523437 0 10-4.476562 10-10v-13.148438c0-5.523437-4.476563-10-10-10zm0 0" fill="#00808a"/><path d="m281 172.734375c0 38.660156-31.339844 70-70 70s-70-31.339844-70-70 31.339844-70 70-70 70 31.339844 70 70zm0 0" fill="#016a74"/><path d="m215.628906 128.785156 11.132813 22.558594c.753906 1.523438 2.207031 2.582031 3.886719 2.824219l24.894531 3.617187c4.234375.617188 5.925781 5.820313 2.863281 8.808594l-18.015625 17.558594c-1.214844 1.183594-1.773437 2.894531-1.484375 4.570312l4.25 24.792969c.726562 4.21875-3.703125 7.433594-7.488281 5.441406l-22.265625-11.703125c-1.503906-.792968-3.300782-.792968-4.804688 0l-22.269531 11.703125c-3.785156 1.992188-8.210937-1.222656-7.488281-5.441406l4.25-24.792969c.289062-1.675781-.265625-3.386718-1.484375-4.570312l-18.011719-17.558594c-3.066406-2.988281-1.375-8.191406 2.859375-8.808594l24.894531-3.617187c1.679688-.242188 3.132813-1.300781 3.886719-2.824219l11.132813-22.558594c1.898437-3.835937 7.367187-3.835937 9.261718 0zm0 0" fill="#fdf385"/><path d="m70.109375 432c-15.730469-16.605469-29.25-35.324219-40.109375-55.675781v-9.324219c0-8.285156 6.714844-15 15-15h350c8.285156 0 15 6.714844 15 15v50c0 8.285156-6.714844 15-15 15l26 .390625h.171875c7.671875.085937 9.929687 8.542969 4.203125 13.652344-.039062.03125-.074219.066406-.113281.101562-2.203125 1.960938-3.828125 3.855469-6.78125 3.855469h-329.5c-6.574219-5.664062-12.863281-11.65625-18.832031-17.957031.285156-.015625.5625-.042969.851562-.042969zm0 0" fill="#e31e7f"/><path d="m30 376.324219v-9.324219c0-8.285156 6.714844-15 15-15h350c8.285156 0 15 6.714844 15 15v18c0 8.285156-6.714844 15-15 15h-350c-.238281 0-.46875-.023438-.703125-.035156-5.175781-7.597656-9.945313-15.488282-14.296875-23.640625zm0 0" fill="#fd3d96"/><path d="m88.296875 371.410156 5.449219 11.039063c.367187.746093 1.078125 1.265625 1.902344 1.382812l12.1875 1.773438c2.070312.300781 2.898437 2.847656 1.398437 4.308593l-8.816406 8.597657c-.597657.578125-.867188 1.414062-.726563 2.234375l2.082032 12.136718c.355468 2.0625-1.8125 3.640626-3.667969 2.664063l-10.898438-5.730469c-.734375-.386718-1.617187-.386718-2.351562 0l-10.898438 5.730469c-1.855469.976563-4.023437-.601563-3.667969-2.664063l2.082032-12.136718c.140625-.820313-.132813-1.65625-.726563-2.234375l-8.820312-8.597657c-1.5-1.460937-.671875-4.007812 1.402343-4.308593l12.1875-1.773438c.820313-.117187 1.535157-.636719 1.902344-1.382812l5.449219-11.039063c.925781-1.878906 3.601563-1.878906 4.53125 0zm176.703125 27.761719h-130c-2.761719 0-5 2.238281-5 5v5c0 2.761719 2.238281 5 5 5h130c2.761719 0 5-2.238281 5-5v-5c0-2.761719-2.238281-5-5-5zm-60-27.5h-70c-2.761719 0-5 2.238281-5 5v5c0 2.761719 2.238281 5 5 5h70c2.761719 0 5-2.238281 5-5v-5c0-2.761719-2.238281-5-5-5zm0 0" fill="#c2186c"/><path d="m379.996094 480h-247.992188c-23.027344-12.773438-43.878906-28.984375-61.855468-47.957031.285156-.015625.5625-.042969.851562-.042969h350c5.675781 0 10.628906 3.167969 13.175781 7.820312-16.148437 15.65625-34.363281 29.1875-54.179687 40.179688zm0 0" fill="#015081"/><path d="m115.480469 470h281.035156c-40.335937 26.542969-88.617187 42-140.515625 42s-100.179688-15.457031-140.519531-42zm0 0" fill="#013f69"/><path d="m172.175781 469.914062-8.820312 8.59375c-.59375.582032-.867188 1.417969-.726563 2.238282l2.082032 12.136718c.144531.828126-.125 1.570313-.609376 2.109376-9.96875-3.835938-19.636718-8.273438-28.957031-13.273438l.164063-.972656c.140625-.820313-.128906-1.65625-.726563-2.238282l-8.816406-8.59375c-1.5-1.460937-.671875-4.007812 1.398437-4.3125l12.1875-1.769531c.824219-.121093 1.535157-.636719 1.902344-1.382812l5.449219-11.042969c.929687-1.875 3.605469-1.875 4.53125 0l5.449219 11.042969c.371094.746093 1.082031 1.265625 1.90625 1.382812l12.183594 1.769531c2.074218.304688 2.902343 2.851563 1.402343 4.3125zm92.824219 15.085938h-70c-2.761719 0-5 2.238281-5 5v5c0 2.761719 2.238281 5 5 5h70c2.761719 0 5-2.238281 5-5v-5c0-2.761719-2.238281-5-5-5zm60-27.5h-130c-2.761719 0-5 2.238281-5 5v5c0 2.761719 2.238281 5 5 5h130c2.761719 0 5-2.238281 5-5v-5c0-2.761719-2.238281-5-5-5zm0 0" fill="#012d4e"/></svg>